<svg xmlns="http://www.w3.org/2000/svg" xmlns:xlink="http://www.w3.org/1999/xlink" version="1.1" x="0px" y="0px" viewBox="0 0 120 150" style="enable-background:new 0 0 120 120;" xml:space="preserve"><g><path d="M30.5,46.4H16.8c-3.9,0-6.8,3-6.8,6.8v13.6c0,3.9,3,6.8,6.8,6.8h13.6c3.9,0,6.8-3,6.8-6.8V53.2   C37.3,49.3,34.3,46.4,30.5,46.4z"/><path d="M30.5,10H16.8C13,10,10,13,10,16.8v13.6c0,3.9,3,6.8,6.8,6.8h13.6c3.9,0,6.8-3,6.8-6.8V16.8C37.3,13,34.3,10,30.5,10z"/><path d="M66.8,82.7H53.2c-3.9,0-6.8,3-6.8,6.8v13.6c0,3.9,3,6.8,6.8,6.8h13.6c3.9,0,6.8-3,6.8-6.8V89.5   C73.6,85.7,70.7,82.7,66.8,82.7z"/><path d="M30.5,82.7H16.8c-3.9,0-6.8,3-6.8,6.8v13.6c0,3.9,3,6.8,6.8,6.8h13.6c3.9,0,6.8-3,6.8-6.8V89.5   C37.3,85.7,34.3,82.7,30.5,82.7z"/><path d="M103.2,10H89.5c-3.9,0-6.8,3-6.8,6.8v13.6c0,3.9,3,6.8,6.8,6.8h13.6c3.9,0,6.8-3,6.8-6.8V16.8C110,13,107,10,103.2,10z"/><path d="M103.2,46.4H89.5c-3.9,0-6.8,3-6.8,6.8v13.6c0,3.9,3,6.8,6.8,6.8h13.6c3.9,0,6.8-3,6.8-6.8V53.2   C110,49.3,107,46.4,103.2,46.4z"/><path d="M103.2,82.7H89.5c-3.9,0-6.8,3-6.8,6.8v13.6c0,3.9,3,6.8,6.8,6.8h13.6c3.9,0,6.8-3,6.8-6.8V89.5   C110,85.7,107,82.7,103.2,82.7z"/><path d="M66.8,10H53.2c-3.9,0-6.8,3-6.8,6.8v13.6c0,3.9,3,6.8,6.8,6.8h13.6c3.9,0,6.8-3,6.8-6.8V16.8C73.6,13,70.7,10,66.8,10z"/><path d="M66.8,46.4H53.2c-3.9,0-6.8,3-6.8,6.8v13.6c0,3.9,3,6.8,6.8,6.8h13.6c3.9,0,6.8-3,6.8-6.8V53.2   C73.6,49.3,70.7,46.4,66.8,46.4z"/></g><text x="0" y="135" fill="#000000" font-size="5px" font-weight="bold" font-family="'Helvetica Neue', Helvetica, Arial-Unicode, Arial, Sans-serif">Created by Xela Ub</text><text x="0" y="140" fill="#000000" font-size="5px" font-weight="bold" font-family="'Helvetica Neue', Helvetica, Arial-Unicode, Arial, Sans-serif">from the Noun Project</text></svg>